<svg width="23" height="16" viewBox="0 0 23 16" fill="none" xmlns="http://www.w3.org/2000/svg">
<rect width="22.4" height="16" rx="2" fill="white"/>
<mask id="mask0_6023_1406" style="mask-type:luminance" maskUnits="userSpaceOnUse" x="0" y="0" width="23" height="16">
<rect width="22.4" height="16" rx="2" fill="white"/>
</mask>
<g mask="url(#mask0_6023_1406)">
<rect width="22.4" height="16" fill="#0A17A7"/>
<path fill-rule="evenodd" clip-rule="evenodd" d="M-1.0258 -1.53314L8.5335 4.91469V-1.06665H13.8668V4.91469L23.4261 -1.53314L24.6191 0.23547L17.0612 5.33335H22.4002V10.6667H17.0612L24.6191 15.7646L23.4261 17.5332L13.8668 11.0853V17.0667H8.5335V11.0853L-1.0258 17.5332L-2.21875 15.7646L5.33916 10.6667H0.000170469V5.33335H5.33916L-2.21875 0.235471L-1.0258 -1.53314Z" fill="white"/>
<path d="M14.9346 5.06575L25.0669 -1.60001" stroke="#DB1F35" stroke-width="0.666667" stroke-linecap="round"/>
<path d="M16.0103 10.958L25.0933 17.0803" stroke="#DB1F35" stroke-width="0.666667" stroke-linecap="round"/>
<path d="M6.40459 5.04836L-3.06982 -1.33679" stroke="#DB1F35" stroke-width="0.666667" stroke-linecap="round"/>
<path d="M7.43219 10.8839L-3.06982 17.8484" stroke="#DB1F35" stroke-width="0.666667" stroke-linecap="round"/>
<path fill-rule="evenodd" clip-rule="evenodd" d="M0 9.6H9.6V16H12.8V9.6H22.4V6.4H12.8V0H9.6V6.4H0V9.6Z" fill="#E6273E"/>
</g>
</svg>
